<mxfile host="app.diagrams.net" modified="2024-01-14T19:26:25.821Z" agent="Mozilla/5.0 (Windows NT 10.0; Win64; x64) AppleWebKit/537.36 (KHTML, like Gecko) Chrome/120.0.0.0 Safari/537.36" etag="qP98u_Ej-QLTkrlNfeyb" version="22.1.18" type="github">
  <diagram name="Page-1" id="IlxNbbEsVztZquxknZKG">
    <mxGraphModel dx="880" dy="506" grid="1" gridSize="10" guides="1" tooltips="1" connect="1" arrows="1" fold="1" page="1" pageScale="1" pageWidth="850" pageHeight="1100" math="0" shadow="0">
      <root>
        <mxCell id="0" />
        <mxCell id="1" parent="0" />
        <mxCell id="j7pvpTHvhTgiDz8gd9h6-1" value="CONTENT" style="rounded=0;whiteSpace=wrap;html=1;" vertex="1" parent="1">
          <mxGeometry x="365" y="100" width="120" height="40" as="geometry" />
        </mxCell>
        <mxCell id="j7pvpTHvhTgiDz8gd9h6-2" value="CONTENT" style="rounded=0;whiteSpace=wrap;html=1;" vertex="1" parent="1">
          <mxGeometry x="120" y="190" width="120" height="40" as="geometry" />
        </mxCell>
        <mxCell id="j7pvpTHvhTgiDz8gd9h6-3" value="CONTENT" style="rounded=0;whiteSpace=wrap;html=1;" vertex="1" parent="1">
          <mxGeometry x="305" y="190" width="120" height="40" as="geometry" />
        </mxCell>
        <mxCell id="j7pvpTHvhTgiDz8gd9h6-4" value="CONTENT" style="rounded=0;whiteSpace=wrap;html=1;" vertex="1" parent="1">
          <mxGeometry x="500" y="190" width="120" height="40" as="geometry" />
        </mxCell>
        <mxCell id="j7pvpTHvhTgiDz8gd9h6-5" value="CONTENT" style="rounded=0;whiteSpace=wrap;html=1;" vertex="1" parent="1">
          <mxGeometry x="510" y="200" width="120" height="40" as="geometry" />
        </mxCell>
      </root>
    </mxGraphModel>
  </diagram>
</mxfile>
